<?xml version="1.0" standalone="no"?>
<!DOCTYPE svg PUBLIC "-//W3C//DTD SVG 20010904//EN"
 "http://www.w3.org/TR/2001/REC-SVG-20010904/DTD/svg10.dtd">
<svg version="1.0" xmlns="http://www.w3.org/2000/svg"
 width="633.000000pt" height="633.000000pt" viewBox="0 0 633.000000 633.000000"
 preserveAspectRatio="xMidYMid meet">
<metadata>
Created by potrace 1.11, written by Peter Selinger 2001-2013
</metadata>
<g transform="translate(0.000000,633.000000) scale(0.100000,-0.100000)"
fill="#000000" stroke="none">
<path d="M1170 3167 l0 -3164 395 0 395 0 23 31 c13 17 44 60 69 96 95 137
447 635 455 645 5 6 40 55 78 110 38 55 83 118 100 141 16 23 36 50 42 60 19
28 152 217 166 234 7 9 30 43 52 75 22 33 42 62 46 65 3 3 23 30 43 60 21 30
39 56 41 58 1 2 40 -59 85 -135 46 -76 90 -146 98 -155 8 -10 11 -18 7 -18 -4
0 -1 -8 7 -17 8 -10 94 -148 190 -308 212 -352 539 -892 558 -921 13 -21 14
-21 572 -21 307 0 558 3 558 8 0 6 -35 66 -110 189 -46 75 -170 282 -188 314
-13 23 -34 57 -46 76 -62 96 -76 120 -76 130 0 5 -4 10 -10 10 -5 0 -10 4 -10
9 0 6 -52 97 -117 203 -64 106 -123 205 -132 220 -9 15 -54 90 -101 167 -47
78 -89 149 -95 159 -5 10 -38 65 -73 122 -35 58 -67 112 -72 120 -5 8 -91 151
-192 318 -101 166 -191 315 -200 332 l-18 30 83 114 c45 63 88 123 95 133 7
10 103 144 213 298 111 154 212 296 225 315 13 19 41 58 61 87 21 28 76 104
123 170 47 65 94 130 105 146 11 15 45 63 75 107 30 44 58 80 63 80 4 0 7 5 7
10 0 6 5 16 10 23 12 13 95 128 174 240 l48 67 -584 0 -584 0 -174 -245 c-165
-232 -193 -271 -272 -379 -18 -25 -80 -111 -137 -193 -58 -81 -125 -176 -150
-210 -25 -34 -56 -77 -69 -95 -81 -114 -175 -246 -187 -261 -8 -9 -15 -20 -15
-23 0 -2 -5 -10 -10 -17 -9 -10 -81 -110 -162 -225 -13 -17 -29 -40 -36 -50
-29 -38 -245 -340 -277 -387 -19 -27 -43 -61 -54 -75 -10 -14 -40 -54 -65 -90
l-46 -64 0 2222 0 2222 -500 0 -500 0 0 -3163z"/>
</g>
</svg>
